<svg t="1724665597530" class="icon" viewBox="0 0 1024 1024" version="1.1" xmlns="http://www.w3.org/2000/svg" p-id="18123" width="200" height="200"><path d="M291.584 344.832l1.024 2.56 167.936 307.968c21.76 35.84 31.232 54.784 51.456 54.784 20.48 0 33.28-21.76 54.528-56.064L731.904 345.856l0.512-1.792c12.544-29.44 18.688-60.672 18.688-92.928 0-131.84-107.264-239.36-239.36-239.36-131.84 0-239.36 107.264-239.36 239.36 0 31.488 6.144 62.208 17.92 91.136C291.072 343.04 291.328 343.808 291.584 344.832zM512 124.672c69.888 0 126.72 56.832 126.72 126.72 0 69.888-56.832 126.72-126.72 126.72-69.888 0-126.72-56.832-126.72-126.72C385.28 181.504 442.112 124.672 512 124.672z" fill="#ffffff" p-id="18124"></path><path d="M985.088 406.784l-138.496-24.576-41.984 72.192 135.936 24.064 0 439.808-242.432-43.008c-5.12-1.024-10.24-1.28-15.36-1.28-5.12 0-10.24 0.512-15.36 1.28l-325.888 57.856-258.048-45.824L83.456 447.488l134.912 24.064-34.304-85.76-127.488-22.528c-2.816-0.512-5.888-0.768-8.704-0.768-11.008 0-21.76 3.584-30.464 10.24-11.008 8.448-17.152 21.248-17.152 34.56l0 508.16c0 21.504 16.384 39.936 38.912 44.032L332.544 1011.456c2.816 0.512 5.888 0.768 8.704 0.768 3.072 0 5.888-0.256 8.96-0.768l332.544-58.88 284.928 50.432c2.816 0.512 5.888 0.768 8.704 0.768 11.008 0 21.76-3.584 30.464-10.24 11.008-8.448 17.152-21.248 17.152-34.56L1024 450.816C1024 429.056 1007.616 410.624 985.088 406.784z" fill="#ffffff" p-id="18125"></path></svg>