<svg xmlns="http://www.w3.org/2000/svg" xmlns:xlink="http://www.w3.org/1999/xlink" viewBox="0 0 222.08 97.48"><defs><style>.cls-1{fill:url(#未命名的渐变_8);}.cls-2{fill:#fff;}.cls-3{fill:none;stroke:#fff;stroke-miterlimit:10;stroke-width:5.21px;}.cls-4{fill:#2f9f45;}</style><linearGradient id="未命名的渐变_8" x1="81.43" y1="101.59" x2="16.06" y2="-4.1" gradientUnits="userSpaceOnUse"><stop offset="0.37" stop-color="#2f9f45"/><stop offset="1" stop-color="#87c463"/></linearGradient></defs><g id="图层_2" data-name="图层 2"><g id="图层_5" data-name="图层 5"><rect class="cls-1" width="97.48" height="97.48" rx="13.17"/><path class="cls-2" d="M61.12,68.17H35.38L30.64,81.29H22.52L43.85,22.63h8.89L74,81.29H65.86ZM48.25,32.11,37.58,61.91H58.92Z"/><circle class="cls-3" cx="48.49" cy="48.74" r="39"/><path class="cls-4" d="M128.66,31H118.18l-1.8,5.11H112.1l9-25h4.76l9,25.05h-4.32Zm-5.22-15-4.1,11.62h8.17Z"/><path class="cls-4" d="M147,16c4.86,0,8,2.41,9.14,6.58h-4.42A4.65,4.65,0,0,0,147,19.4c-3.31,0-5.51,2.45-5.51,6.77S143.71,33,147,33a4.54,4.54,0,0,0,4.72-3.13h4.42c-1.11,3.89-4.28,6.59-9.14,6.59-5.69,0-9.72-4-9.72-10.26S141.33,16,147,16Z"/><path class="cls-4" d="M160.92,19.62h-2.34V16.27h2.34V11.34h4.14v4.93h4.82v3.35h-4.82v11c0,1.47.57,2.08,2.3,2.08h2.52V36.1h-3.24c-3.53,0-5.72-1.47-5.72-5.5Z"/><path class="cls-4" d="M173.12,11a2.61,2.61,0,1,1,2.63,2.63A2.59,2.59,0,0,1,173.12,11Zm.54,5.26h4.1V36.1h-4.1Z"/><path class="cls-4" d="M185.22,16.27l5.61,16.16,5.62-16.16h4.35L193.24,36.1h-4.89l-7.52-19.83Z"/><path class="cls-4" d="M212.43,36.43c-5.69,0-9.9-4-9.9-10.26s4-10.22,9.9-10.22c5.65,0,9.65,3.92,9.65,9.75a12.49,12.49,0,0,1-.15,2H206.78A5.46,5.46,0,0,0,212.43,33a4.8,4.8,0,0,0,4.68-2.77h4.43C220.42,33.66,217.29,36.43,212.43,36.43Zm-5.61-12h11c-.07-3.06-2.48-5-5.54-5A5.4,5.4,0,0,0,206.82,24.41Z"/><path class="cls-4" d="M128.66,74.19H118.18l-1.8,5.11H112.1l9-25h4.76l9,25h-4.32Zm-5.22-15-4.1,11.62h8.17Z"/><path class="cls-4" d="M146.66,59.15a8.42,8.42,0,0,1,6.88,3.2V59.47h4.13V79.63c0,5.4-3.49,9.46-9.68,9.46-5.29,0-9.21-2.62-9.72-7h4.07c.61,2,2.81,3.45,5.65,3.45,3.17,0,5.55-1.94,5.55-5.9V76.32a8.53,8.53,0,0,1-6.88,3.31c-5.22,0-9.36-4.21-9.36-10.33S141.44,59.15,146.66,59.15Zm.86,3.56c-3.06,0-6,2.3-6,6.59s3,6.76,6,6.76,6-2.41,6-6.69S150.62,62.71,147.52,62.71Z"/><path class="cls-4" d="M162.54,54.22a2.61,2.61,0,1,1,2.62,2.62A2.59,2.59,0,0,1,162.54,54.22Zm.54,5.25h4.1V79.3h-4.1Z"/><path class="cls-4" d="M186.65,68.22c0-3.64-2-5.51-5-5.51s-5,1.87-5,5.51V79.3h-4.1V59.47h4.1v2.27a7.65,7.65,0,0,1,5.91-2.59c4.64,0,8.13,2.91,8.13,8.46V79.3h-4.07Z"/><path class="cls-4" d="M203.93,59.15a8.41,8.41,0,0,1,6.88,3.2V59.47H215V79.63c0,5.4-3.49,9.46-9.68,9.46-5.29,0-9.22-2.62-9.72-7h4.07c.61,2,2.8,3.45,5.65,3.45,3.16,0,5.54-1.94,5.54-5.9V76.32a8.53,8.53,0,0,1-6.88,3.31c-5.21,0-9.35-4.21-9.35-10.33S198.72,59.15,203.93,59.15Zm.87,3.56c-3.06,0-6,2.3-6,6.59s3,6.76,6,6.76,6-2.41,6-6.69S207.89,62.71,204.8,62.71Z"/></g></g></svg>